{"title":"Temps.2016.WEBRip.480p.x264.AAC-VYTO [P2PDL]","uid":14257832,"size":322469646,"categoryP":"video","categoryS":"movies","magnet":"?xt=urn:btih:4cf5bffb319ac2a7bf9cd0d699ff75dbe0b658a7&amp;dn=Temps.2016.WEBRip.480p.x264.AAC-VYTO+%5BP2PDL%5D&amp;tr=udp%3A%2F%2Ftracker.leechers-paradise.org%3A6969&amp;tr=udp%3A%2F%2Fzer0day.ch%3A1337&amp;tr=udp%3A%2F%2Fopen.demonii.com%3A1337&amp;tr=udp%3A%2F%2Ftracker.coppersurfer.tk%3A6969&amp;tr=udp%3A%2F%2Fexodus.desync.com%3A6969","seeders":0,"leechers":1,"uploader":"VYTOP2PDL","files":7,"time":1460211187,"description":"Temps.2016.WEBRip.480p.x264.AAC-VYTO\r\n\r\n\r\nGenre: Comedy, Romance  \nhttp://www.imdb.com/title/tt3900796/\r\n\r\n\r\nFormat                                   : MPEG-4\r\nFile size                                : 301 MiB\r\nDuration                                 : 1h 25mn\r\nOverall bit rate                         : 492 Kbps\r\n\r\nVideo\r\nFormat                                   : AVC\r\nBit rate                                 : 449 Kbps\r\nWidth                                    : 720 pixels\r\nHeight                                   : 304 pixels\r\nDisplay aspect ratio                     : 2.35:1\r\nFrame rate mode                          : Constant\r\nFrame rate                               : 23.976 fps\r\nBit depth                                : 8 bits\r\nStream size                              : 274 MiB (91%)\r\nWriting library                          : x264\r\n\r\nAudio\r\nFormat                                   : AAC\r\nBit rate mode                            : Variable\r\nBit rate                                 : 40.0 Kbps\r\nChannel(s)                               : 2 channels\r\nChannel positions                        : Front: L R\r\nSampling rate                            : 48.0 KHz\r\nStream size                              : 24.5 MiB (8%)\r\nLanguage                                 : English\r\n\r\nSubtitle                                 : Yes (English)\r\n\r\nScreen Shot: (Click link to view)\r\n \nhttp://ititli.com/XUS \nhttp://ititli.com/XUZ \nhttp://ititli.com/XUc \nhttp://ititli.com/XUi \nhttp://ititli.com/XUp \nhttp://ititli.com/XUD \nhttp://ititli.com/XUa \nhttp://ititli.com/XUb \nhttp://ititli.com/XUz\r\n\r\n----------------------------------------------------------------------------------------------------\r\n\r\n\r\nEncoder Notes: Looking For Early Access To Anything You Can Provide WEBDL, DVDScr, DVDR, BluRay,\r\nDirect Audio, Music Releases and Seedboxes. If You Got anything to offer please contact us.\r\n\r\nSupport us by donating BC - 1FgwdzPsd1y25Gea8wP1qni35uGCtmkRCD\r\n\r\nFind us and join us!","torrent":{"xt":"urn:btih:4cf5bffb319ac2a7bf9cd0d699ff75dbe0b658a7","amp;dn":"Temps.2016.WEBRip.480p.x264.AAC-VYTO+%5BP2PDL%5D","amp;tr":["udp%3A%2F%2Ftracker.leechers-paradise.org%3A6969","udp%3A%2F%2Fzer0day.ch%3A1337","udp%3A%2F%2Fopen.demonii.com%3A1337","udp%3A%2F%2Ftracker.coppersurfer.tk%3A6969","udp%3A%2F%2Fexodus.desync.com%3A6969"],"infoHash":"4cf5bffb319ac2a7bf9cd0d699ff75dbe0b658a7","infoHashBuffer":{"type":"Buffer","data":[76,245,191,251,49,154,194,167,191,156,208,214,153,255,117,219,224,182,88,167]},"announce":[],"urlList":[]}}